<svg width="167" height="41" viewBox="0 0 167 41" fill="none" xmlns="http://www.w3.org/2000/svg">
<path d="M27.0187 26.8828C28.6076 27.8059 29.1694 29.8732 27.9387 31.2377C26.3288 33.0226 24.3282 34.4337 22.0756 35.3503C18.7887 36.6879 15.1508 36.8971 11.7322 35.9452C8.3136 34.9933 5.30739 32.9342 3.18466 30.0904C1.06194 27.2466 -0.0573268 23.7789 0.0022604 20.2308C0.0618476 16.6826 1.29692 13.2545 3.51394 10.4836C5.73095 7.71268 8.80462 5.75562 12.2533 4.91907C15.7019 4.08253 19.3307 4.41377 22.5709 5.86091C24.7914 6.85266 26.7435 8.3301 28.2925 10.1681C29.4767 11.5732 28.8458 13.6204 27.2269 14.4897C25.6079 15.3589 23.6173 14.6857 22.2398 13.4695C21.5325 12.8451 20.7304 12.3268 19.8572 11.9368C17.9619 11.0903 15.8392 10.8965 13.8219 11.3859C11.8046 11.8752 10.0067 13.02 8.70983 14.6408C7.41298 16.2617 6.69052 18.267 6.65566 20.3425C6.62081 22.418 7.27553 24.4464 8.51722 26.1099C9.75891 27.7734 11.5174 28.9779 13.5171 29.5347C15.5169 30.0915 17.6448 29.9691 19.5675 29.1867C20.4533 28.8263 21.2724 28.3352 22.0003 27.7349C23.4178 26.5656 25.4299 25.9597 27.0187 26.8828Z" fill="#5932EA"/>
<path d="M14 19L19.5 24.5L36.5 11" stroke="#16C098" stroke-width="5" stroke-linecap="round"/>
<path d="M40.6777 20.4413C40.6777 18.5789 41.0977 16.9081 41.9376 15.4291C42.7775 13.9319 43.9187 12.7633 45.3612 11.9234C46.8219 11.0835 48.4379 10.6635 50.209 10.6635C52.2906 10.6635 54.1074 11.1656 55.6594 12.1699C57.2114 13.1741 58.3435 14.5984 59.0556 16.4425H56.0702C55.5407 15.2922 54.7738 14.4066 53.7696 13.7858C52.7836 13.165 51.5967 12.8546 50.209 12.8546C48.8761 12.8546 47.6801 13.165 46.6211 13.7858C45.5621 14.4066 44.7313 15.2922 44.1287 16.4425C43.5262 17.5746 43.2249 18.9075 43.2249 20.4413C43.2249 21.9568 43.5262 23.2897 44.1287 24.4401C44.7313 25.5721 45.5621 26.4486 46.6211 27.0694C47.6801 27.6902 48.8761 28.0006 50.209 28.0006C51.5967 28.0006 52.7836 27.6993 53.7696 27.0968C54.7738 26.476 55.5407 25.5904 56.0702 24.4401H59.0556C58.3435 26.266 57.2114 27.6811 55.6594 28.6853C54.1074 29.6713 52.2906 30.1643 50.209 30.1643C48.4379 30.1643 46.8219 29.7535 45.3612 28.9318C43.9187 28.0919 42.7775 26.9325 41.9376 25.4535C41.0977 23.9745 40.6777 22.3037 40.6777 20.4413ZM70.4894 14.717C71.6215 14.717 72.644 14.9635 73.5569 15.4565C74.4699 15.9313 75.182 16.6525 75.6933 17.6203C76.2228 18.588 76.4875 19.7657 76.4875 21.1534V30H74.0225V21.5095C74.0225 20.0122 73.6482 18.871 72.8996 18.0859C72.151 17.2825 71.1285 16.8808 69.8321 16.8808C68.5174 16.8808 67.4675 17.2916 66.6823 18.1133C65.9154 18.9349 65.532 20.1309 65.532 21.7012V30H63.0396V9.73227H65.532V17.1273C66.025 16.3604 66.7006 15.7669 67.5588 15.347C68.4352 14.927 69.4121 14.717 70.4894 14.717ZM94.5271 21.9203C94.5271 22.395 94.4998 22.8972 94.445 23.4267H82.4487C82.54 24.9057 83.0421 26.0651 83.9551 26.9051C84.8863 27.7267 86.0092 28.1376 87.3239 28.1376C88.4012 28.1376 89.2959 27.8911 90.008 27.3981C90.7384 26.8868 91.2496 26.2112 91.5418 25.3713H94.2259C93.8242 26.8138 93.0208 27.9915 91.8156 28.9044C90.6105 29.7991 89.1133 30.2465 87.3239 30.2465C85.8997 30.2465 84.6215 29.927 83.4894 29.2879C82.3756 28.6488 81.4992 27.745 80.8601 26.5764C80.221 25.3895 79.9015 24.0201 79.9015 22.4681C79.9015 20.916 80.2119 19.5557 80.8327 18.3871C81.4535 17.2185 82.3209 16.3238 83.4347 15.703C84.5667 15.064 85.8631 14.7444 87.3239 14.7444C88.7481 14.7444 90.008 15.0548 91.1035 15.6756C92.1991 16.2965 93.039 17.1546 93.6233 18.2502C94.2259 19.3275 94.5271 20.5509 94.5271 21.9203ZM91.9526 21.3999C91.9526 20.4504 91.7426 19.6379 91.3226 18.9623C90.9027 18.2685 90.3275 17.7481 89.5972 17.4011C88.885 17.036 88.0908 16.8534 87.2143 16.8534C85.9544 16.8534 84.8771 17.2551 83.9824 18.0585C83.106 18.8619 82.6039 19.9757 82.4761 21.3999H91.9526ZM97.1597 22.4681C97.1597 20.916 97.4701 19.5649 98.0909 18.4145C98.7117 17.2459 99.5699 16.3421 100.665 15.703C101.779 15.064 103.048 14.7444 104.472 14.7444C106.317 14.7444 107.832 15.1918 109.019 16.0865C110.224 16.9812 111.018 18.2228 111.402 19.8114H108.718C108.462 18.8984 107.96 18.1772 107.211 17.6476C106.481 17.1181 105.568 16.8534 104.472 16.8534C103.048 16.8534 101.898 17.3464 101.022 18.3324C100.145 19.3001 99.7068 20.6787 99.7068 22.4681C99.7068 24.2757 100.145 25.6726 101.022 26.6586C101.898 27.6446 103.048 28.1376 104.472 28.1376C105.568 28.1376 106.481 27.8819 107.211 27.3707C107.942 26.8594 108.444 26.129 108.718 25.1796H111.402C111 26.7133 110.197 27.9458 108.992 28.8771C107.787 29.79 106.28 30.2465 104.472 30.2465C103.048 30.2465 101.779 29.927 100.665 29.2879C99.5699 28.6488 98.7117 27.745 98.0909 26.5764C97.4701 25.4078 97.1597 24.0384 97.1597 22.4681ZM123.382 30L117.494 23.3719V30H115.001V9.73227H117.494V21.6464L123.273 14.9909H126.751L119.685 22.4681L126.779 30H123.382ZM131.863 9.73227V30H129.371V9.73227H131.863ZM137.672 12.5533C137.197 12.5533 136.796 12.389 136.467 12.0603C136.138 11.7317 135.974 11.33 135.974 10.8552C135.974 10.3805 136.138 9.97877 136.467 9.6501C136.796 9.32144 137.197 9.15711 137.672 9.15711C138.129 9.15711 138.512 9.32144 138.823 9.6501C139.151 9.97877 139.316 10.3805 139.316 10.8552C139.316 11.33 139.151 11.7317 138.823 12.0603C138.512 12.389 138.129 12.5533 137.672 12.5533ZM138.877 14.9909V30H136.385V14.9909H138.877ZM148.713 30.2465C147.562 30.2465 146.531 30.0548 145.618 29.6713C144.705 29.2696 143.983 28.7219 143.454 28.028C142.924 27.3159 142.632 26.5034 142.577 25.5904H145.152C145.225 26.339 145.572 26.9507 146.193 27.4255C146.832 27.9002 147.663 28.1376 148.685 28.1376C149.635 28.1376 150.383 27.9276 150.931 27.5076C151.479 27.0877 151.753 26.5581 151.753 25.9191C151.753 25.2617 151.461 24.7779 150.876 24.4675C150.292 24.1388 149.388 23.8193 148.165 23.5088C147.051 23.2167 146.138 22.9246 145.426 22.6324C144.732 22.322 144.129 21.8746 143.618 21.2904C143.125 20.6878 142.879 19.9027 142.879 18.9349C142.879 18.168 143.107 17.465 143.563 16.826C144.02 16.1869 144.668 15.6848 145.508 15.3196C146.348 14.9361 147.307 14.7444 148.384 14.7444C150.045 14.7444 151.387 15.1644 152.41 16.0043C153.433 16.8442 153.98 17.9946 154.053 19.4553H151.561C151.506 18.6702 151.187 18.0402 150.602 17.5655C150.036 17.0907 149.269 16.8534 148.302 16.8534C147.407 16.8534 146.695 17.0451 146.165 17.4285C145.636 17.812 145.371 18.3141 145.371 18.9349C145.371 19.4279 145.526 19.8387 145.837 20.1674C146.165 20.4778 146.567 20.7334 147.042 20.9343C147.535 21.1169 148.21 21.3269 149.069 21.5642C150.146 21.8564 151.022 22.1485 151.698 22.4407C152.373 22.7146 152.949 23.1345 153.423 23.7006C153.916 24.2666 154.172 25.0061 154.19 25.9191C154.19 26.7407 153.962 27.4802 153.506 28.1376C153.049 28.7949 152.401 29.3153 151.561 29.6987C150.739 30.0639 149.79 30.2465 148.713 30.2465ZM161.023 17.0451V25.8917C161.023 26.622 161.178 27.1424 161.488 27.4528C161.799 27.745 162.337 27.8911 163.104 27.8911H164.939V30H162.693C161.306 30 160.265 29.6805 159.571 29.0414C158.877 28.4023 158.53 27.3524 158.53 25.8917V17.0451H156.586V14.9909H158.53V11.2113H161.023V14.9909H164.939V17.0451H161.023Z" fill="black"/>
</svg>
